<?xml version="1.0" encoding="iso-8859-1"?>
<!-- Generator: Adobe Illustrator 19.0.0, SVG Export Plug-In . SVG Version: 6.00 Build 0)  -->
<svg version="1.1" id="Layer_1" xmlns="http://www.w3.org/2000/svg" xmlns:xlink="http://www.w3.org/1999/xlink" x="0px" y="0px"
	 viewBox="0 0 511.253 511.253" style="enable-background:new 0 0 511.253 511.253;" xml:space="preserve">
<g>
	<g>
		<path d="M372.413,326.528l-106.667-320c-2.88-8.704-17.323-8.704-20.224,0l-106.667,320c-1.109,3.264-0.555,6.848,1.451,9.621
			c2.005,2.795,5.227,4.437,8.661,4.437c3.413,0,5.013,1.387,9.557,6.827c4.8,5.781,12.053,14.507,25.941,14.507
			s21.141-8.725,25.963-14.507c4.288-5.163,5.995-6.827,9.579-6.827c3.413,0,5.013,1.387,9.536,6.827
			c3.349,4.053,8.085,9.387,15.253,12.309l0.021,16.875l-27.093-13.547c-3.307-1.643-7.232-1.493-10.368,0.469
			c-3.136,1.941-5.056,5.397-5.056,9.067v64c0,3.691,1.941,7.125,5.077,9.067c3.136,1.941,7.04,2.091,10.368,0.469l27.136-13.568
			l0.043,36.032c0.021,5.696-2.197,11.051-6.229,15.083c-4.011,4.032-9.387,6.251-15.083,6.251
			c-11.755,0-21.312-9.557-21.312-21.312c0-5.888-4.779-10.667-10.667-10.667s-10.667,4.779-10.667,10.667
			c0,23.509,19.136,42.645,42.645,42.645c11.413,0,22.123-4.437,30.165-12.48c8.064-8.064,12.48-18.795,12.48-30.187l-0.043-36.117
			l27.307,13.653c1.515,0.747,3.136,1.131,4.779,1.131c1.941,0,3.904-0.533,5.611-1.6c3.136-1.941,5.056-5.376,5.056-9.067v-64
			c0-3.691-1.92-7.125-5.099-9.067c-3.136-1.963-7.083-2.133-10.368-0.469l-27.349,13.675l-0.021-16.981
			c7.211-2.923,11.947-8.277,15.339-12.331c4.288-5.163,5.995-6.827,9.579-6.827c3.605,0,5.312,1.664,9.621,6.827
			c4.821,5.781,12.117,14.507,26.005,14.507s21.184-8.725,26.005-14.507c4.309-5.163,6.016-6.827,9.621-6.827
			c3.435,0,6.656-1.664,8.661-4.437C372.946,333.355,373.501,329.771,372.413,326.528z M266.194,400.576l21.419-10.709v29.483
			l-21.419-10.709V400.576z M244.86,408.704l-21.227,10.624v-29.483l21.227,10.603V408.704z M336.295,333.76
			c-4.309,5.163-6.016,6.827-9.621,6.827s-5.312-1.664-9.621-6.827c-4.821-5.781-12.117-14.507-26.005-14.507
			s-21.163,8.725-25.963,14.507c-4.309,5.163-5.995,6.827-9.6,6.827c-3.413,0-5.013-1.387-9.536-6.827
			c-4.8-5.781-12.075-14.507-25.941-14.507c-13.888,0-21.141,8.725-25.963,14.507c-4.544,5.461-6.123,6.827-9.557,6.827
			c-3.413,0-5.013-1.387-9.557-6.827c-2.901-3.477-6.699-8.043-12.288-11.115l92.992-278.997l92.992,278.997
			C343.015,325.717,339.197,330.261,336.295,333.76z"/>
	</g>
</g>
<g>
</g>
<g>
</g>
<g>
</g>
<g>
</g>
<g>
</g>
<g>
</g>
<g>
</g>
<g>
</g>
<g>
</g>
<g>
</g>
<g>
</g>
<g>
</g>
<g>
</g>
<g>
</g>
<g>
</g>
</svg>
